<!--?xml version="1.0" standalone="no"?-->
              <svg id="sw-js-blob-svg" viewBox="0 0 100 100" xmlns="http://www.w3.org/2000/svg" version="1.1">
                    <defs> 
                        <linearGradient id="sw-gradient" x1="0" x2="1" y1="1" y2="0">
                            <stop id="stop1" stop-color="rgba(224, 220, 247, 1)" offset="0%"></stop>
                            <stop id="stop2" stop-color="rgba(251, 168, 31, 1)" offset="100%"></stop>
                        </linearGradient>
                    </defs>
                <path fill="rgba(224, 220, 247, 1)" d="M24.3,-36.9C31.4,-33.2,37.2,-26.4,36.3,-19.3C35.3,-12.1,27.7,-4.6,24.9,2.5C22.2,9.6,24.4,16.3,23.1,23C21.9,29.7,17.3,36.3,11.2,38.2C5.1,40,-2.4,37,-10.7,35.2C-18.9,33.3,-27.9,32.6,-33.8,28C-39.8,23.4,-42.7,15,-42.6,6.9C-42.5,-1.2,-39.4,-8.9,-33.8,-13.1C-28.2,-17.3,-20.1,-17.9,-14,-22.2C-8,-26.4,-4,-34.3,2.3,-37.8C8.6,-41.4,17.1,-40.6,24.3,-36.9Z" width="100%" height="100%" transform="translate(50 50)" stroke-width="0" style="transition: all 0.3s ease 0s;"></path>
              </svg>